<svg xmlns="http://www.w3.org/2000/svg" width="315.689" height="73.348" viewBox="0 0 315.689 73.348"><g transform="translate(-29.646 -4374.093)"><path d="M-104.457,3.479l-.609-.229-.152-1.5.3-.812V-.736l-.939-.152-2.311,2.641-.736.762h-.33l-1.092-.635-.1-.355,4.646-4.57v-.635h-1.27a41.1,41.1,0,0,0-4.621.762l-.812-.787v-.355l2.133-.609h1.447l.152-.152h3.275l.711-.533v-.914l-.2-.635h-1.574l-.508.127a2.038,2.038,0,0,0-2.107-.914l-2.133.432-.965-.533-.33-.812.559-.178.1.1h1.447l2.057-.457.3-.432v-1.422l1.041-4.189,1.143-.914.914.533.127.533-.711,1.32h1.041l.686-.3h2.082l.965.635v.533l-.127.889.813.152a3.46,3.46,0,0,1,2.768-1.346,1.14,1.14,0,0,1,.406,1.066l-1.4.965-.66.254q2.869.99,4.85,1.473l.051.152a3.625,3.625,0,0,1-2.057.609l-4.85-1.422-.609,3.1-.609.178-1.168-.432v1.879l.686.381,2.336-.3.939.508.1.457-.381.457h-1.854l-.838-.152-.889.355-.1.787.1.609L-98.186.381l.3.813-.66.1-5-2.488V2.742l.2.508ZM-108.012-17.8l-.686-.152-1.752.381-.939-.812v-.33q1.523-.381,3.25-.787l.152-.609-.3-1.117.406-.178,1.092.355.584,1.549,1.625.178a18.429,18.429,0,0,0,1.32-2.945l.406-.1.939.609.1.381-.584,1.7.838.229.178-.178h1.9l1.143.482.1.66a.789.789,0,0,1-.863.279l-1.727-.279-.381.279h-1.727l-1.117,1.777-.229.1-.635-.559v-.279l.178-1.041H-105.9l-.533,1.346-1.016.609Zm5.23,8.938V-9.42l-.432-.279h-3.148l-.229.863.559.66h.635Zm-.025-2.133.355-1.574-1.193-.178-2.463.889-.178.787a2.382,2.382,0,0,0,1.879.482Zm-6.779-.812-1.066-.609a3.4,3.4,0,0,1-1.523-2.006l.686-.229,1.143.584,1.4,1.955A.843.843,0,0,1-109.586-11.807ZM-85.566,3.2a3.343,3.343,0,0,1-.99-2.463l.508-2.285v-1.6l.152-1.473h-.99L-87.674-3.5l-1.219.127-.584-.686A30.014,30.014,0,0,0-84.3-10.74a17.065,17.065,0,0,0-4.52-2.793l-.2-.457a14.994,14.994,0,0,1,5.256-1.523l.178-1.777-.3-.812v-3.148l.051-.051h1.523l.381.482V-17.7l.33,1.7,1.041.229.178-.2h1.727l.152-.127h2.057l.635.381.229.584-.863.482h-1.6l-1.346.99a8.739,8.739,0,0,0-1.65,2.945l5.941,3.072.3-.3V-9.775l-.736-2.691a1.982,1.982,0,0,1,1.4-.178l.66.533.939,7.16-.406.457h-.711l-1.016-1.143-.152-.686-3.225-.914v1.574l.66,3.631V.381l-.432.787-1.016.127a1.981,1.981,0,0,1-.457-2.107l-.686-.254L-84.424.406-84.6,1.98l.254.889Q-84.652,3.453-85.566,3.2ZM-68.555.33-69.6-.457v-.66l.3-.914V-4.8l.127-.152V-7.693l.355-2.082-.2-.457.229-.99-.229-.178v-3.91a1.082,1.082,0,0,1,1.117-.33l1.016.863v1.041l-.178.152v6.449l-.3,1.752v4.24L-67.793.076ZM-79.7-2.514l.406-.99-.584-.812H-81.91l-2.209.838L-84.475-1.9l1.32.381Zm-.279-3.377.2-.533-.533-2.59-2.107-.457a3.837,3.837,0,0,0-1.371,3.834l1.168.178.178-.152h2.209Zm-2.818-6.2,1.066-2.107h-1.6l-1.625.533v1.066l1.854.762ZM-45.576,3.428-45.7,3.1l-.838-.355-.229-.3V.838l.2-.99-.2-.152V-4.7l.178-.482-.178-.863.178-.939L-47.023-8.4l-1.27-.178-1.676.508-.2,2.031.3,1.676-.609,2.311-.508.127-1.27-.838-.508,1.4.127,1.5a40.846,40.846,0,0,1-8.023,1.93h-1.65A3.27,3.27,0,0,1-63.553-1.27q.635-3.58,1.295-7.363v-2.818l-.127-.939,2.818-2.209,1.092-1.879.736-.127,1.092.508.1.787-1.523,1.27-2.184,3.148h1.32l2.285-.66h2.158l.787.533.127.533-.152.127v2.133l.254.939-1.5,1.193L-56.342-6.5l-4.6,1.168-.178,1.27.99.508a22.251,22.251,0,0,1,4.545-.863l1.193.2.482-.2,1.8.406.457-.965V-7.693l-.736-2.336.686-.2a3.439,3.439,0,0,0,2.387.457l2.691-.533.178-2.057a2.308,2.308,0,0,0-1.879-.508l-1.777.33-.914-.787v-.457a12.219,12.219,0,0,1,3.1-.711H-45.3a7.091,7.091,0,0,1,3.809.99l.127.559a1.606,1.606,0,0,1-1.752.432l-1.32-.279-.229,1.727.584.457H-42l.762-.127,1.219.711.457,1.625v4.063l.33,1.727q-.254.965-1.041.863l-.99-.584L-41.488-3.5l.1-.127V-8.3l-.178-.711-.762-.229h-1.752l-.863.584v1.8l.152.152v3.326l-.152.178V-.127l.457,2.717-.355.66ZM-54.895-.559v-.533l.355-1.422-.381-.406h-2.133l-2.158.635H-61.42V.025l.939.482,2.666-.66h1.676Zm-.66-7.668V-9.445A2.6,2.6,0,0,0-57.611-9.9l-2.615,1.016-.254,1.473,1.016.254ZM-32.627.965a2.426,2.426,0,0,1-1.8-.787l-.254-.889V-2.133a11.977,11.977,0,0,1,1.8-5.535A11.568,11.568,0,0,1-24.908-11.4,5.444,5.444,0,0,1-21.3-9.725a13.183,13.183,0,0,1,3.859,7.592V-.2l-.508.635h-.66A1.3,1.3,0,0,1-19.627-.711a2.382,2.382,0,0,0,.381-1.676,13.468,13.468,0,0,0-3.605-6.7L-23.893-9.6A28.475,28.475,0,0,1-28.768-.457,4.4,4.4,0,0,1-31.078.965Zm1.549-1.8a26.273,26.273,0,0,0,5-7.338l.406-1.295-.66-.254A15.045,15.045,0,0,0-31.357-6.5a12.075,12.075,0,0,0-1.65,5.789.946.946,0,0,0,1.016.381ZM6.5,2.514l-.787-.762V1.117L5.992.355V-3.326L4.824-3.682l-3.682.66v2.26l.1.406L.939.33-.025.457-.939-.33V-.965l.3-.584V-3.986l.381-1.27v-2.26l.127-.127v-3.225l.279-.254H2.768l1.117-.3h1.7l.762-.127.533.2a16.851,16.851,0,0,1,.762,4.012V-5.18l.152.2V1.473l.127.355-.406.686ZM-6.906-.2l-.965-.609-.152-1.244,4.85-11.324h-.787l-4.24.813-.711-.914a57.7,57.7,0,0,0,6.779-1.828L-.99-18.256h1.4l.406.914L.178-15.895h.889a10.107,10.107,0,0,1,3.072-.762H5.764a.65.65,0,0,1,.3.787l-.355.482A56.334,56.334,0,0,0-.863-14.092Q-3.758-7.16-6.221-.559Zm12.7-4.773.229-.889-.609-.889L3.986-6.881H1.955a2.028,2.028,0,0,0-.66,2.006l1.244.533Zm-.229-3,.152-1.346-.736-.99H3.453l-1.8.838-.3,1.041,1.295.609H4.824l.229.406ZM24.273,3.758l-.889-.812V2.082a4,4,0,0,0,1.7-2.234V-.838h-2.92l-.99-.762-.127-2.26a32.32,32.32,0,0,1,1.473-5.992l.813-.1,1.346.127.584-.914-.3-.66a35.163,35.163,0,0,0,3.123-5.383l.711-.1.787.609v.66l-.686,1.828q2.031,1.041,3.682,1.879l.076.66-.99.254-3.656-1.6-.812,1.727.508.432h1.777L30.672-10a50.268,50.268,0,0,1,1.219,5.891,3.778,3.778,0,0,1-.965,2.539A10.713,10.713,0,0,0,26.609-.432L26.787.686,25.035,3.529Zm7.084-.787-1.752-.863A3.267,3.267,0,0,1,28.336,0l.482-.1a25.674,25.674,0,0,1,3.4,2.387l.1.33Zm-3.4-5.687L27.4-3.275h-3.58l-.686.939,1.32.406.2-.152h2.107Zm1.828-2.209.254-.66-.762-.939h-.914l-.432.152-1.244-.152-1.219.457H23.639l-.584.99.635.66h4.926Zm-.762-3.148.254-.711-1.32-.533a15.409,15.409,0,0,1-3.91.762L23.816-7.49h1.219l1.092-.33h2.691ZM17.8-11.146l-.914-.838v-.381q1.879-.863,3.986-1.6h1.422l.66.508v.584A12.335,12.335,0,0,1,17.8-11.146Zm14.523-3.072a1.5,1.5,0,0,1-.635-1.447,5.333,5.333,0,0,0,.787-2.869l-.99-.33-.432.1-.127-.1h-1.8l-3.1.584-.33.254v2.666a1.463,1.463,0,0,1-1.4.33,1.593,1.593,0,0,1-.609-1.32l.127-.457-.1-.406.1-.127V-19.3l-.406-2.082.559-.432,1.5.787.508.863h1.9l.152-.178h5a2.325,2.325,0,0,1,1.676.66l.127.686a17.273,17.273,0,0,1-1.777,4.773Zm-12.34-2.818L18.23-17.9l-.406-1.041.33-.279h1.422l2.006,1.143.127.762-.2.279ZM45.729,3.047l-1.016-.762-.432-3V-5.256l.127-.178v-1.7l.2-1.168-.863-.2L41.438-4.9l-1.092.152a1.316,1.316,0,0,1-.66-1.193,26.118,26.118,0,0,1,3.555-5.1l1.346-1.244v-.889l-.889-.2L40.98-12.8l-.99-.812v-.533a47.421,47.421,0,0,0,4.646-1.117l.279-.279v-3.682l.736-.279,1.219.482.025.025v1.9l-.127,1.193.254.33H48.8l.584-.178,1.32.584.152.889h.609l3.4-3.1h2.26l.2.152h2.691a3.263,3.263,0,0,1,2.234.736l.279.66-3.072,3.732v.863l4.291,2.107L63.857-8l-.812.127A14.529,14.529,0,0,0,58.3-10.156L55.809-6.678l.33.381h2.184l.178-.178h1.676l.66.178.457-.152,1.676.914A3.875,3.875,0,0,1,63.553-3.4v1.93l-.178.482L63.553.229l-.508.66H62.41A3.176,3.176,0,0,0,60.125.355l-.2.178H57.789l-.838,1.016.178.406-.863.355L55.1,1.422l-.1-.1V-.2l.482-2.336V-5.053l-.686-.229-1.27.508-.965-.686v-.762l.736-.432a27,27,0,0,0,2.92-4.621q-1.625-.939-3.3-2.031l-.889,1.4-1.092.279-.66-.508v-.508l.584-1.727H50.2l-1.752.482-1.016-.152-.609.2-.2.635v2.082l.889.939,3.707.939.076.508-1.371.508-3.25-.838-.432,1.727v2.844l.178.457-.3,2.463L46.617.152V1.777l.152.863A1.016,1.016,0,0,1,45.729,3.047ZM61.268-1.4l.279-.279V-3.758l-.584-.965L59.668-5.1l-2.082.533-.406.635v2.564l.457.432h2.082ZM57.383-12.518a7.107,7.107,0,0,0,1.879-3L58.83-16H57.078a3.686,3.686,0,0,0-2.641,1.549l-.229.914,2.92,1.219ZM78.229,2.641l-1.092-.508a8.44,8.44,0,0,1-.381-2.666L77.7-5.967,76.68-6.221q-3.732,3.707-6.6,7.109h-.33L68.707.152l-.076-.2.559-.787h.355l.2-.508.432-.127.3-.812,8.023-7.744v-.863H77.289L73.1-9.75l-.863-.482-.254-.609a43.423,43.423,0,0,1,6.068-1.549l.33-.254V-15.26l-1.473-.355-2.26.533-.838-1.143a27.088,27.088,0,0,1,4.342-.889l.279-1.041.736-.127,2.209,1.27.229-.254h1.5l1.625,1.447.584.254.1.533-1.6,1.168v.99l.889.229,1.4-.152.863.482.1.381-.635.432H83.205a5.376,5.376,0,0,0-3.631,2.387l-.863,1.5h1.295L82.088-8.2h2.564l1.422.635.127.635-.609,2.818v1.371l-.152.178V-.939L84.855.406V1.752l-.812.457H79.777ZM83.256.787l.152-1.371-.381-1.295-2.006-.3-2.336.66L78.33.279l.584.762,1.041.178.127-.152h2.844Zm.406-4.012L84.3-6.754l-1.143-.66a16.941,16.941,0,0,0-3.91,1.473l-.3,2.387.457.482h3.352l.559.2ZM81.25-12.9l1.93-2.768-.406-.432H80.666l-.609.229-.229.66v2.158l1.117.457ZM96.535,2.184,95.9,1.65V.762L97.2-5.357l-.508-.127L94.072-3.656l-1.041-.66L92.9-4.85q2.336-1.676,4.545-3.1v-3.91l1.295-.127a1.172,1.172,0,0,1,.533,1.422l-.127.127V-8.48l1.168.127.508-.254h2.209l1.32.787.635,2.209a16.3,16.3,0,0,1-1.8,7.008l-1.32.127L101.359.482a15.468,15.468,0,0,0,1.828-6.754l-.533-.914-.127-.127h-1.7l-1.549.66L98.9-4.7v1.549q-.66,2.59-1.32,5.205Zm14.955-5.84a42.737,42.737,0,0,0-5.967-7.82l-1.041-1.041v-.635l.914-.254,2.057,1.8a45.264,45.264,0,0,1,5.332,7.287l-.381.508Zm-.508-6.652q-1.828-2.463-3.783-5.053v-.533a1.444,1.444,0,0,1,1.168-.254A49.613,49.613,0,0,1,111.9-11.6l.127.787A1.275,1.275,0,0,1,110.982-10.309Zm3.885-.381a41.841,41.841,0,0,0-3.631-5.332L110.7-16.4l-.127-.914,1.041-.254.914.508.406.787.381.127a9.8,9.8,0,0,1,2.463,5.459ZM-87.75,40.234l-1.295-.914-.127-.127V36.705l.254-1.422-.127-.635.787-6.779-.787-.254-4.824,1.295-.254,1.168.127.406-.127.762.381,1.955-.127.406.279.635-.66.66h-.508l-.787-.254a3.655,3.655,0,0,1-.406-1.7V29.824l-.635-.254a3.6,3.6,0,0,1-2.615.787l-.762-.66-.127-.66q1.93-.635,4.012-1.295l.127-.127V26.32l-.381-2.615.787-.381,1.168.66.254.762-.127.152v1.676l.254.533.406.127a28.556,28.556,0,0,1,5.332-1.32l.254-.381V23.857l-.127-1.32,1.041-.254.889.533.152.127v1.295l-.152.787.66.381,1.295-.508H-82.8l.635.508v.66a20.3,20.3,0,0,1-3.885,1.168l-.406,1.295v1.676l-.254,1.193v1.295l-.254,1.168v1.422l-.127.127v1.295l-.152.152v1.676l.279.66A1.278,1.278,0,0,1-87.75,40.234Zm21.582.279L-67.184,39.5a31.328,31.328,0,0,1-.762-3.834V33.887l-.127-.127V31.576l-.127-.635.127-.762-.127-.508.127-.889-.127-.889h-.508l-5.23,1.143-1.016-1.016v-.381q3.3-.762,6.627-1.4L-68.2,25.2l-.508-2.539,1.016-.381.635.381.254.381v1.4l.127.127v1.295l.762.254,2.945-.635a9.954,9.954,0,0,1,2.666-5.23,8.559,8.559,0,0,1,2.666-1.27h1.422a11.477,11.477,0,0,1,2.666,1.4,5.051,5.051,0,0,1,1.143,3.3l-1.27,2.564a15.048,15.048,0,0,1-2.793,2.412l-1.295.254q-1.777-1.016-3.682-1.9h-1.4l-3.58.635-.127.127v4.469l.127.127V34.9l.127.127v1.4a17.951,17.951,0,0,1,.889,3.707Q-65.533,40.641-66.168,40.514Zm-8.531-1.65-.889-.66v-.889q2.031-3.428,3.809-7.008l1.143-.254.635.635V31.2a37.647,37.647,0,0,0-3.936,7.541Zm15.412-1.8-.762-.381v-.254a16.141,16.141,0,0,1-4.723-3.3l-.762-1.676.762-.127.508.254.381.787a17.851,17.851,0,0,0,5.357,3.3l.254,1.016Q-58.525,37.188-59.287,37.061Zm2.539-10.436a7.132,7.132,0,0,0,2.311-2.818l.381-1.4a4.488,4.488,0,0,0-1.777-1.777L-57,20.506a6.179,6.179,0,0,0-2.666,1.777l-1.27,2.666,1.143.914.254.635.127.127h1.777l.762.127ZM-45.2,33.074l-.838-1.041.076-.635q6.576-.965,13.152-2.006l.736.736.051.813-.432.508L-33.9,31.3Q-39.559,32.186-45.2,33.074Zm29.758,7.084-1.549-.762-.127-.406.254-1.8-.254-1.27v-4.9l-.127-.508.127-.127V28.961l.127-.127v-6.3l-.127-.66a1.066,1.066,0,0,1,1.27-.381l.914.762v1.168l-.127.127v3.859l-.127.127V29.85a7.222,7.222,0,0,0,2.438.406l.381-.127,1.168.254h1.422l1.27.254h1.8l.66.635v.381l-.533.533H-9.395l-.127-.127H-11.07l-.127-.127h-2.057l-.127-.127h-1.676l-.254.254v2.818l.127.127V37.34l.254.762v1.422Zm29.555-.127a6.416,6.416,0,0,1-3.25-1.422A7.066,7.066,0,0,1,8.531,32.9V30.688l-.152-.127V26.777l.152-.127v-3.5a1.379,1.379,0,0,1,1.295-.406l.635.533v.914l-.127.127v3l-.127.127v2.844l.127.127V32.49l.127.127v1.447a6.283,6.283,0,0,0,1.828,3.758,5.253,5.253,0,0,0,2.336.787l2.082-.914.127-.381,1.295-.254.533.381v.508A6.4,6.4,0,0,1,14.117,40.031ZM34.4,39.32,32.6,38.3a2.149,2.149,0,0,1-.66-1.574l.787-1.143a14.5,14.5,0,0,1,5.307-2.082l.127-.127v-3.1l-.381-1.549-.406-.152-1.8.66H34.15l-.787-.787v-.381a38.712,38.712,0,0,1,4.291-1.041l.127-.127V25.1L37.5,23.934l-1.143-.127a27.867,27.867,0,0,0-4.012,1.041l-.787-.787v-.635a11.4,11.4,0,0,1,2.971-.914H36.08l1.422-.254.152-.127V20.836l1.016-.127a1.331,1.331,0,0,1,.787,1.549,2.582,2.582,0,0,0,1.8.381l1.295-.127.66.254.254.914-.787.381H41.26l-.127-.127H39.711a3.8,3.8,0,0,0-.381,1.676l.381,1.295.508.127a18.162,18.162,0,0,0,3.758-.635l.66.635v.533a3.163,3.163,0,0,1-1.422.635H41.387l-.127.127H39.965l-.254.254v2.082l.254,1.422-.127.127v1.422a15.431,15.431,0,0,1,6.094,3.25l.127.508.381.127.127.381-.127.66-1.168.127-.381-.533-.533-.254a22.356,22.356,0,0,0-3.605-2.717H39.711a10.715,10.715,0,0,1-1.93,3.377,4.426,4.426,0,0,1-2.082.762Zm1.955-1.8A3.327,3.327,0,0,0,37.5,35.309h-.508L34.023,36.73l-.254.914,1.168.508Zm31.992,2.92L67.057,39.4v-.508l.381-.914V36.553l.127-.381-.127-.914h-.254a2.631,2.631,0,0,1-2.336.914,5.241,5.241,0,0,1-2.971-1.549l-.508-1.041V32.033l-.127-.381a10.886,10.886,0,0,1,1.8-3.123,3.023,3.023,0,0,1,2.184-.889l1.7.508V25.178l-1.041-.254a25.012,25.012,0,0,0-8.4,2.438L56.57,26.6l-.127-.787.127-.254a40.337,40.337,0,0,1,7.236-1.93h1.574l1.143-.406.127-.381-.381-1.8a1.042,1.042,0,0,1,1.168-.533l.914.914v1.422a1.417,1.417,0,0,0,1.168.254l1.295-.381.889.254.66-.127.762.533.127.635-.635.635h-.381l-.152-.127H70.408l-.635.127-.406-.127-.635.406-.127.127v1.422l.127.508-.127.127v2.844l-.127.127v1.295l.762,3v4.9l-.508.787-.254.381Zm-2.717-6.068V34.09a3.706,3.706,0,0,0,.889-2.057V30.738l-1.016-1.295h-.533a11.637,11.637,0,0,0-1.8,2.057l-.254,1.955.889.914,1.168.254Zm24.146,6.119-.787-.914V37.746l.508-.914,1.32-.152.66.66V38l-.152.533.152.381L90.7,40.361Zm-.406-7.465-.787-.635V29.773A29.729,29.729,0,0,1,91.2,20.1h.66l.914.533.254,1.041a34.52,34.52,0,0,0-2.615,9.268v1.7Z" transform="translate(187 4397)" fill="#595757" stroke="rgba(0,0,0,0)" stroke-width="1"/><line y1="60" transform="translate(36.231 4395) rotate(-30)" fill="none" stroke="#f08300" stroke-width="1"/><line y1="60" transform="translate(339 4395) rotate(30)" fill="none" stroke="#f08300" stroke-width="1"/><line y1="30" transform="translate(344.982 4425.874) rotate(45)" fill="none" stroke="#f08300" stroke-width="1"/><line y1="30" transform="translate(30 4425.874) rotate(-45)" fill="none" stroke="#f08300" stroke-width="1"/></g></svg>