<svg xmlns="http://www.w3.org/2000/svg" width="67" height="67" viewBox="0 0 67 67"><g transform="translate(-308)"><rect width="67" height="67" transform="translate(308)" fill="#fff"/><path d="M6.393-5.648A15.728,15.728,0,0,0,7.547-7.775,6.973,6.973,0,0,0,8-9.252,5.334,5.334,0,0,1,9.516-8.5a.253.253,0,0,1,.117.205.333.333,0,0,1-.135.264,3.43,3.43,0,0,0-.539.8A24.223,24.223,0,0,1,7.594-4.846,16.434,16.434,0,0,1,9.357-3.217a.275.275,0,0,1,.07.17.343.343,0,0,1-.059.152q-.24.316-.732.855a.185.185,0,0,1-.146.082.235.235,0,0,1-.164-.105A12.855,12.855,0,0,0,6.756-3.65,15.98,15.98,0,0,1,2.648.1a.538.538,0,0,1-.275.094A.349.349,0,0,1,2.145.111,3.406,3.406,0,0,0,1.066-.551,16.38,16.38,0,0,0,3.674-2.408,15.565,15.565,0,0,0,5.59-4.488a14.806,14.806,0,0,0-2.338-1.43q.656-.838.791-.984a.169.169,0,0,1,.117-.059.361.361,0,0,1,.146.047A17.122,17.122,0,0,1,6.393-5.648Zm8.186-2.127q.908.07,2.039.07H19q.885,0,2.156-.059.135,0,.135.205.018.264.018.533t-.018.533q-.018.229-.158.229-.855-.035-2.1-.035H16.652q-.709,0-1.834.047-.152,0-.17-.252A8.7,8.7,0,0,1,14.578-7.775ZM13.1-2.689q1.037.07,2.484.07h4.365q1.313,0,2.7-.059.193,0,.193.217.018.258.018.521t-.018.521q0,.252-.182.252Q21.809-1.2,20.039-1.2H15.551q-1.436,0-2.162.059-.146,0-.182-.229Q13.16-1.652,13.1-2.689ZM31.787-1.547h.568l1.459-.012h.064q.188,0,.2.217.012.182.012.381t-.012.375a.347.347,0,0,1-.044.2.275.275,0,0,1-.179.038l-1.67-.012H27.768q-.961,0-1.547.023-.17,0-.205-.24a6.145,6.145,0,0,1-.059-1.008q.686.047,1.729.047h2.783l.41-2.912H28.945q-.387,0-1.318.041H27.58q-.146,0-.17-.229-.041-.264-.088-1.037,1.342.059,1.67.059H30.65a1.9,1.9,0,0,0,.709-.105.189.189,0,0,1,.129-.053.433.433,0,0,1,.182.07,3.945,3.945,0,0,1,.732.662.323.323,0,0,1,.105.217.309.309,0,0,1-.105.217,1.127,1.127,0,0,0-.24.6ZM37.26-5.268a17.719,17.719,0,0,0,2.59.146h3.867q.568,0,1.465-.018,1.143-.018,1.295-.023h.059q.158,0,.158.17.018.275.018.568t-.018.563q0,.182-.17.182h-.047Q44.678-3.7,43.8-3.7H39.48l-1.764.146a.264.264,0,0,1-.275-.252A11.411,11.411,0,0,1,37.26-5.268Z" transform="translate(317 54)" fill="#595757"/><line x2="24" transform="translate(329 17)" fill="none" stroke="#F08300" stroke-linecap="round" stroke-width="3"/><line x2="24" transform="translate(329 25)" fill="none" stroke="#F08300" stroke-linecap="round" stroke-width="3"/><line x2="24" transform="translate(329 33)" fill="none" stroke="#F08300" stroke-linecap="round" stroke-width="3"/></g></svg>