<svg xmlns="http://www.w3.org/2000/svg" viewBox="0 0 293.88 53.01"><defs><style>.cls-1{fill:#ef8200;}.cls-2{fill:#00aaea;}.cls-3{fill:#595757;}.cls-4{fill:none;}</style></defs><title>アセット 11</title><g id="レイヤー_2" data-name="レイヤー 2"><g id="レイヤー_1-2" data-name="レイヤー 1"><path id="パス_2011" data-name="パス 2011" class="cls-1" d="M16.62,14.11c-.42.42-.83.85-1.24,1.27C27.63,3.79,42-.83,47.89,5.11s1.33,20.27-10.27,32.5c.42-.4.85-.82,1.27-1.24C51.4,23.87,56.55,8.75,50.4,2.59S29.13,1.61,16.62,14.11Z"/><path id="パス_2012" data-name="パス 2012" class="cls-1" d="M5.11,47.89C-.83,42,3.78,27.63,15.38,15.39c-.43.4-.85.82-1.27,1.24C1.6,29.14-3.55,44.26,2.59,50.41s21.28,1,33.78-11.52c.43-.42.84-.84,1.25-1.27C25.37,49.22,11.05,53.84,5.11,47.89Z"/><path id="パス_2013" data-name="パス 2013" class="cls-1" d="M16.62,38.9l-1.24-1.28C27.63,49.22,42,53.84,47.88,47.89s1.33-20.26-10.27-32.5c.42.4.85.82,1.27,1.24C51.39,29.14,56.54,44.26,50.4,50.41S29.13,51.4,16.62,38.9Z"/><path id="パス_2014" data-name="パス 2014" class="cls-1" d="M5.11,5.11c-5.94,6-1.33,20.27,10.27,32.51-.43-.4-.85-.82-1.27-1.24C1.6,23.87-3.55,8.75,2.59,2.6s21.28-1,33.78,11.51c.43.42.84.85,1.25,1.28C25.37,3.78,11.05-.83,5.11,5.11Z"/><path id="パス_2015" data-name="パス 2015" class="cls-2" d="M35.55,22.84H30.16V17.45a1.06,1.06,0,0,0-1.06-1.07H23.9a1.07,1.07,0,0,0-1.07,1.07v5.39H17.44a1.06,1.06,0,0,0-1.06,1.06v5.21a1.05,1.05,0,0,0,1.06,1.06h5.39v5.4a1.07,1.07,0,0,0,1.07,1.06h5.2a1.07,1.07,0,0,0,1.07-1.06v-5.4h5.39a1.07,1.07,0,0,0,1.06-1.07V23.9A1.07,1.07,0,0,0,35.55,22.84Z"/><path class="cls-3" d="M76.83,28.11l9.08-.65.19,2.8-8.82.65.86,5.48,9.6-.72.22,2.8-9.39.75L80,47.85l-3.1.39-1.37-8.77-10.86.87-.21-2.88L75,36.65l-.86-5.52-8.53.62-.19-2.83,8.26-.59L73,23.51l3.09-.36Z"/><path class="cls-3" d="M97.82,32.25l9.68-1.62,1.67,1.28A19.54,19.54,0,0,1,103.92,42l-2.15-1.79a12.84,12.84,0,0,0,4.12-6.55L98.28,35l2.17,12.76-2.68.51L95.53,35.41l-5.48,1-.38-2.78,5.38-.89-.81-4.62L97,27.6Z"/><path class="cls-3" d="M161.67,29.64c.08-2.47.11-3.67.11-5.43h3c0,2.15-.06,3.8-.14,5.43h9.65c-.05,8-.48,14.5-1.07,16.46s-1.67,2.52-4.2,2.52a26.76,26.76,0,0,1-3.6-.28L165,45.26a18.52,18.52,0,0,0,3.71.42c1.26,0,1.53-.22,1.72-1.45a95,95,0,0,0,.83-11.79h-6.69a24,24,0,0,1-2.32,9,18.5,18.5,0,0,1-7,7.17l-2-2.43A17.16,17.16,0,0,0,159.6,40a20.65,20.65,0,0,0,1.93-7.56h-7.87v-2.8Z"/><path class="cls-3" d="M185.22,25.63v5c0,5.23-.25,7.87-1,10.44a14.09,14.09,0,0,1-5.67,7.28l-2-2.43c4.74-3.48,5.81-6.3,5.76-15.24v-5Zm6.72-.78V44.28c3.57-1.82,6.64-6.07,7.79-10.75l2.32,2.32a19.39,19.39,0,0,1-11.13,12.63L189,46.75V24.85Z"/><path class="cls-1" d="M213.9,38.13V28.89h4a17,17,0,0,0,.39-1.79l2.86.42c-.2.53-.25.7-.56,1.37h5v9.24H221.1v1.48H233v2.3h-8.82a34.66,34.66,0,0,0,9.1,3.75l-1.76,2.52a29.52,29.52,0,0,1-10.42-5.85v6.78h-3v-6.7a22.89,22.89,0,0,1-10.22,6.19l-1.71-2.38a26.76,26.76,0,0,0,9.36-4.31H206.4v-2.3h11.73V38.13Zm-7.19-1.57a26.72,26.72,0,0,0,5.88-3l.78,2.15A32.43,32.43,0,0,1,207.8,39Zm6.75-14h3v1.87h6.36V22.51h2.94v1.87h6.69v2.24h-6.69v1.49h-2.94V26.62h-6.36v1.49h-3V26.62H207V24.38h6.44ZM211.27,33a18.41,18.41,0,0,0-4-3.41l1.74-1.88A22.28,22.28,0,0,1,213.12,31Zm5.38-.5h6.13V30.74h-6.13Zm0,3.75h6.13V34.41h-6.13Zm9.18-5.4a28.9,28.9,0,0,0,4.26-3.42l2,1.85a33.25,33.25,0,0,1-4.67,3.42Zm5.52,7.75a44.18,44.18,0,0,0-5.46-3.33l1.4-1.87a40.25,40.25,0,0,1,5.54,2.94Z"/><path class="cls-1" d="M250.11,27.55a17.71,17.71,0,0,1-3.47,4.06,31.18,31.18,0,0,0,6.52,1.9l-1.26,2.41a13.49,13.49,0,0,1-1.54-.37V49.11h-2.77V43.17h-6.92a9,9,0,0,1-3.27,6.16l-2-2.13c2.1-1.71,2.72-3.5,2.72-7.89V35.86c-.45.14-.7.2-1.6.42L235.07,34a25.8,25.8,0,0,0,7-2.1,18.45,18.45,0,0,1-4-4.31h-2.16V25.19h6.86V22.51h2.92v2.68h6.46v2.36ZM240.9,39.31c0,.5,0,1.17,0,1.54h6.72V38.61H240.9Zm6.69-4.6a23,23,0,0,1-3.28-1.42,23.27,23.27,0,0,1-3.41,1.65v1.4h6.69Zm-6.44-7.16a14.27,14.27,0,0,0,3.19,2.82,3.41,3.41,0,0,1,.42-.33A14.3,14.3,0,0,0,247,27.55Zm15-2.94V42.13h-2.72V24.61Zm5-1.21V46.19c0,2-.73,2.55-3.39,2.55a28.13,28.13,0,0,1-2.91-.17l-.53-2.85a21.31,21.31,0,0,0,3.19.25c.73,0,.84-.11.84-.9V23.4Z"/><path class="cls-1" d="M268.64,25.36a22.39,22.39,0,0,0,.76-2.94l3.08.45a25.55,25.55,0,0,1-1.15,2.49h4.23V34h-7.31v3.17h7.59v9.15h-7.59v2.27h-2.71V25.36Zm-.39,6.25h4.68V27.8h-4.68Zm0,12.26h4.9V39.61h-4.9Zm14.14-17.5h-6V23.71H291.3v2.66h-6.14v3.84h5.35V42.72c0,1.68-.61,2.27-2.41,2.27a19.14,19.14,0,0,1-2.1-.14l-.61-2.77a11.3,11.3,0,0,0,1.87.17c.48,0,.59-.14.59-.65V32.78h-2.69V49.11h-2.77V32.78H280V45.52h-2.57V30.21h5Z"/><path class="cls-3" d="M74,15.14a5.12,5.12,0,0,1-3.64,1.31,4.72,4.72,0,0,1-4.88-5,4.78,4.78,0,0,1,4.8-5.08,4.92,4.92,0,0,1,3.45,1.26L73,8.7a3.46,3.46,0,0,0-2.62-1c-1.83,0-3.14,1.57-3.14,3.76a4,4,0,0,0,.7,2.39,3.18,3.18,0,0,0,2.49,1.27A4,4,0,0,0,73.25,14Z"/><path class="cls-3" d="M80.4,11.54c0-.9-.57-1.38-1.67-1.38a3.64,3.64,0,0,0-2.31.75l-.64-1a5.21,5.21,0,0,1,3-1c2,0,3,.94,3,2.78v2.36a4.83,4.83,0,0,0,.41,2.12H80.88a4.49,4.49,0,0,1-.33-1.18h0a3.19,3.19,0,0,1-1,1,3,3,0,0,1-1.58.39,2.26,2.26,0,0,1-2.44-2.23c0-1.58,1.37-2.41,4-2.41h1Zm-.62,1.24c-1.91,0-2.77.42-2.77,1.35,0,.67.52,1.12,1.32,1.12a2,2,0,0,0,2.06-1.88v-.59Z"/><path class="cls-3" d="M85.63,11.13C86.07,9.67,86.81,9,88,9a2.16,2.16,0,0,1,1,.2l-.41,1.37a2.15,2.15,0,0,0-.73-.12c-1.09,0-1.9.9-2.14,2.37v3.43h-1.5V9.17h1.45l0,2Z"/><path class="cls-3" d="M91.23,13a2.13,2.13,0,0,0,2.25,2.25,2.84,2.84,0,0,0,2.26-1.06l.82.95a4.07,4.07,0,0,1-3.2,1.36,3.46,3.46,0,0,1-3.69-3.69A3.52,3.52,0,0,1,93.22,9a3.32,3.32,0,0,1,3.33,3.57V13ZM95,11.89a1.77,1.77,0,0,0-1.83-1.79,2,2,0,0,0-1.91,1.79Z"/><path class="cls-3" d="M99.77,13A2.13,2.13,0,0,0,102,15.21a2.82,2.82,0,0,0,2.25-1.06l.83.95a4.09,4.09,0,0,1-3.21,1.36,3.46,3.46,0,0,1-3.69-3.69A3.52,3.52,0,0,1,101.76,9a3.32,3.32,0,0,1,3.34,3.57V13Zm3.77-1.07a1.79,1.79,0,0,0-1.84-1.79,2,2,0,0,0-1.91,1.79Z"/><path class="cls-3" d="M108.64,11.13C109.07,9.67,109.81,9,111,9a2.16,2.16,0,0,1,1,.2l-.41,1.37a2.11,2.11,0,0,0-.73-.12c-1.09,0-1.89.9-2.13,2.37v3.43h-1.5V9.17h1.45l0,2Z"/><path class="cls-3" d="M117.47,11.69l3-3,.7.69-3,3,3,3-.7.7-3-3-3,3-.7-.7,3-3-3-3,.7-.69Z"/><path class="cls-3" d="M126,6.53,128,11a14.07,14.07,0,0,1,.73,2h.05a13.26,13.26,0,0,1,.73-2l2-4.47h2.25v9.71h-1.49v-5c0-1,0-2.78.08-3.5h0c-.33,1-.73,2.08-1.09,2.88l-1.81,3.95h-1.25l-1.81-3.95a25.42,25.42,0,0,1-1.09-2.88h0c0,1,.07,2.19.07,3.5v5h-1.49V6.53Z"/><path class="cls-3" d="M137.2,13a2.13,2.13,0,0,0,2.25,2.25,2.84,2.84,0,0,0,2.26-1.06l.83.95a4.1,4.1,0,0,1-3.21,1.36,3.46,3.46,0,0,1-3.69-3.69A3.52,3.52,0,0,1,139.19,9a3.32,3.32,0,0,1,3.33,3.57V13ZM141,11.89a1.77,1.77,0,0,0-1.83-1.79,2,2,0,0,0-1.91,1.79Z"/><path class="cls-3" d="M151.25,6V16.28h-1.48v-1.1a2.68,2.68,0,0,1-2.31,1.23c-2,0-3.3-1.5-3.3-3.73A3.4,3.4,0,0,1,147.53,9a2.72,2.72,0,0,1,2.24,1.16V6Zm-1.48,5.67a2.18,2.18,0,0,0-1.93-1.48,2.26,2.26,0,0,0-2.11,2.51c0,1.52.83,2.52,2.09,2.52a2.27,2.27,0,0,0,2-1.38Z"/><path class="cls-3" d="M155.53,6.24V7.78h-1.66V6.24Zm-.08,2.93v7.07h-1.51V9.17Z"/><path class="cls-3" d="M164.34,15.17a3.56,3.56,0,0,1-3,1.29,3.61,3.61,0,0,1-3.77-3.78A3.64,3.64,0,0,1,161.34,9a4,4,0,0,1,2.77,1l-.74,1a2.86,2.86,0,0,0-2-.78,2.28,2.28,0,0,0-2.24,2.53,2.32,2.32,0,0,0,2.28,2.49,2.49,2.49,0,0,0,2.06-.95Z"/><path class="cls-3" d="M170.34,11.54c0-.9-.58-1.38-1.67-1.38a3.64,3.64,0,0,0-2.31.75l-.64-1a5.21,5.21,0,0,1,3-1c2,0,3,.94,3,2.78v2.36a4.83,4.83,0,0,0,.41,2.12h-1.33a4.86,4.86,0,0,1-.34-1.18h0a3.19,3.19,0,0,1-1,1,3,3,0,0,1-1.58.39,2.26,2.26,0,0,1-2.44-2.23c0-1.58,1.37-2.41,4-2.41h1Zm-.62,1.24c-1.91,0-2.77.42-2.77,1.35a1.16,1.16,0,0,0,1.31,1.12,2,2,0,0,0,2.07-1.88v-.59Z"/><path class="cls-3" d="M175.92,6v8.79c0,.19.09.28.27.28h1L177,16.24h-1.31A1.11,1.11,0,0,1,174.41,15V6Z"/><path class="cls-3" d="M135,33.51v2.8h-9.22c-.28,7.17-2.35,10.67-7.7,13l-1.78-2.43c4.79-2.1,6.42-4.71,6.57-10.53H112.68v-2.8Zm-5.58-7.78v2.8h-14v-2.8ZM131.67,29a26,26,0,0,0-1.81-4.9l2-.47a22.5,22.5,0,0,1,1.81,4.81Zm3.21-.75a20.07,20.07,0,0,0-1.81-4.93l1.89-.42a19.85,19.85,0,0,1,1.91,4.73Z"/><path class="cls-3" d="M143.6,38.38a31,31,0,0,1-6.39,3.54L136,39.55A27.79,27.79,0,0,0,148.74,30l2,1.37A34.55,34.55,0,0,1,146,36.4V49H143.6Z"/><rect class="cls-4" width="293.88" height="53.01"/></g></g></svg>